<svg xmlns="http://www.w3.org/2000/svg" viewBox="0 0 100 100" fill="none">
  <!-- Dark background circle -->
  <circle cx="50" cy="50" r="50" fill="#0a0a0a"/>
  <!-- Amber outer ring -->
  <circle cx="50" cy="50" r="46" stroke="#f59e0b" stroke-width="2" fill="none"/>
  <!-- SD lettermark -->
  <!-- S -->
  <path d="M22 38 C22 33 27 30 33 30 C39 30 44 33 44 38 C44 43 39 45 33 47 C27 49 22 52 22 57 C22 63 27 66 33 66 C39 66 44 63 44 57"
        stroke="#f59e0b" stroke-width="5" stroke-linecap="round" fill="none"/>
  <!-- D -->
  <path d="M52 30 L52 66" stroke="#f59e0b" stroke-width="5" stroke-linecap="round" fill="none"/>
  <path d="M52 30 C68 30 78 37 78 48 C78 59 68 66 52 66"
        stroke="#f59e0b" stroke-width="5" stroke-linecap="round" fill="none"/>
</svg>
